Coordinates
version=1
nRows=16
nColumns=33
inDegrees=yes

Units are S.I. units (second, meters, Newtons, ...)
Angles are in degrees.

endheader
time	ground_thorax_rot_x	ground_thorax_rot_y	ground_thorax_rot_z	ground_thorax_tx	ground_thorax_ty	ground_thorax_tz	clav_prot_r	clav_elev_r	scapula_abduction_r	scapula_elevation_r	scapula_upward_rot_r	scapula_winging_r	shoulder_elv_r	plane_of_elev_r	axial_rot_r	elbow_flexion_r	pro_sup_r	wrist_flex_r	wrist_dev_r	clav_prot_l	clav_elev_l	scapula_abduction_l	scapula_elevation_l	scapula_upward_rot_l	scapula_winging_l	shoulder_elv_l	plane_of_elev_l	axial_rot_l	elbow_flexion_l	pro_sup_l	wrist_flex_l	wrist_dev_l
      2.89000000	     35.78688251	      7.32191086	     16.56204505	   -141.48683320	    810.95627856	      1.00766550	     16.74195901	     40.46545646	     43.51613052	     45.00000000	    -37.25205555	  -2245.76853633	  -1369.00450199	     34.24931777	     24.02140022	    370.67796358	      6.03055987	     17.59781351	     10.96351888	      9.41060025	    -45.00000000	    -45.00000000	     45.00000000	    -21.14836747	   1535.15467357	  -3168.22344856	     25.35615669	     -8.96415134	   1085.09953326	     25.94433076	     10.10921436	    -20.95384049
      2.90000000	     35.56537165	      8.15425602	     17.75936674	   -146.40613664	    812.05570995	      1.00373774	     16.86571356	     39.94804091	     43.32855891	     45.00000000	    -39.88655323	  -2245.33793777	  -1368.14579851	     34.00401469	     21.50860535	    370.56047311	      5.21996609	     17.57087852	     11.41053530	      9.60124008	    -45.00000000	    -43.87650590	     45.00000000	    -24.29140771	   1534.99316886	  -3167.52431079	     25.20901381	    -10.53247184	   1085.62982517	     24.54141898	      9.83084239	    -20.96197213
      2.91000000	     35.76581047	      7.78747371	     17.23909031	   -151.44438665	    813.08903114	      0.94125417	     16.92014011	     39.76593057	     43.45878039	     45.00000000	    -39.09652281	  -2245.83351049	  -1368.67226215	     33.73276272	     23.24214729	    370.36524481	      5.94538153	     17.63226736	     10.78348744	      9.67274147	    -45.00000000	    -44.27241077	     45.00000000	    -23.62652208	   1535.68149559	  -3167.60411744	     25.24743153	    -10.74237443	   1085.60062333	     23.61244097	     10.08521949	    -20.96853023
      2.92000000	     36.22960126	      7.16019043	     16.05947205	   -156.47472841	    814.07417192	      0.82545139	     16.36995979	     40.55644976	     43.11223773	     45.00000000	    -37.74239211	  -2246.57068133	  -1368.91208849	     33.99716847	     24.52860873	    370.37995799	      6.91863033	     17.75773183	     11.63883704	      9.38697952	    -45.00000000	    -44.31510633	     45.00000000	    -22.72873335	   1535.61480082	  -3167.53734911	     25.03353475	    -10.69900469	   1085.72382968	     22.73572260	      9.72815944	    -20.82088809
      2.93000000	     36.17747091	      7.47804839	     16.55601021	   -161.44863137	    815.02503110	      0.68113926	     16.89179377	     39.86061776	     43.10589122	     45.00000000	    -40.33792588	  -2245.94087158	  -1368.03956480	     33.91037629	     19.70066109	    369.89981942	      7.85629494	     17.78937850	     11.69991930	      9.68880593	    -45.00000000	    -43.47014944	     45.00000000	    -25.23250477	   1535.49301384	  -3166.86087361	     25.02490269	    -11.87874647	   1086.09330520	     21.35824439	      9.63576010	    -20.86058077
      2.94000000	     36.69302356	      6.56833699	     15.22285479	   -166.24587258	    815.95860309	      0.54850927	     15.79986573	     41.17176912	     43.09239143	     45.00000000	    -37.48650948	  -2246.80287161	  -1368.93075466	     33.48435771	     22.35952068	    370.04034074	      9.80720506	     18.09784734	     12.68203026	      9.22606714	    -45.00000000	    -43.94898846	     45.00000000	    -22.99628045	   1535.72660100	  -3167.02960271	     24.50728498	    -11.22538852	   1086.03096514	     20.49796189	      9.36979876	    -20.67634950
      2.95000000	     36.44202499	      7.52228011	     16.40363449	   -170.94616670	    816.87387170	      0.45344075	     17.00632165	     39.40618757	     43.08815784	     45.00000000	    -40.82830477	  -2246.35583300	  -1368.27346644	     33.49758437	     19.65162042	    369.55651173	     11.58427328	     18.08242279	     11.29907730	      9.83999437	    -45.00000000	    -43.28168916	     45.00000000	    -26.21410906	   1536.25000634	  -3166.62567028	     24.99318501	    -12.66130695	   1086.22120360	     19.55460861	      9.82458937	    -20.81889383
      2.96000000	     36.59071540	      7.75841768	     16.55776418	   -175.59493023	    817.76389405	      0.40823247	     16.80539231	     39.52967884	     42.71258889	     45.00000000	    -41.79029279	  -2246.39696267	  -1367.85275966	     33.68727274	     18.07140671	    369.33867019	     14.09343500	     18.34623040	     11.90807494	      9.80841899	    -45.00000000	    -42.57255723	     45.00000000	    -27.74596938	   1536.05762212	  -3166.23065083	     24.86806259	    -13.23759214	   1086.31481409	     18.23250977	      9.53712168	    -20.69101216
      2.97000000	     36.91863808	      7.31273263	     15.68247065	   -180.23162343	    818.62424589	      0.42981968	     16.39633592	     39.93521103	     42.38765765	     45.00000000	    -40.53556118	  -2247.21334576	  -1368.34881450	     34.01335562	     21.40648074	    369.39343410	     16.08310345	     18.59995343	     12.12127438	      9.61617502	    -45.00000000	    -42.91011486	     45.00000000	    -26.39993479	   1536.42412887	  -3166.41444457	     24.72452700	    -12.85799872	   1086.05398412	     17.45940539	      9.62484007	    -20.53900999
      2.98000000	     36.72907155	      8.26484855	     17.03618381	   -184.85108430	    819.45068333	      0.51202544	     16.82993420	     39.05637376	     42.40640164	     45.00000000	    -43.49620666	  -2246.84567547	  -1367.66927141	     33.74415506	     19.32949308	    369.35573533	     17.44545853	     18.62987141	     11.77862156	      9.87870971	    -45.00000000	    -41.85701586	     45.00000000	    -30.07893486	   1536.51870711	  -3165.77556859	     24.77095578	    -13.95384807	   1086.39654457	     16.32084268	      9.50158884	    -20.56386415
      2.99000000	     36.76748961	      8.46303755	     17.22231293	   -189.48092916	    820.25960667	      0.68153388	     16.77690272	     38.84552970	     42.23056929	     45.00000000	    -44.29819493	  -2247.00733652	  -1367.56068979	     33.67181622	     21.32138184	    369.62223553	     18.63235332	     18.69883706	     11.52742959	      9.89987466	    -45.00000000	    -41.57720928	     45.00000000	    -31.03464091	   1536.80345582	  -3165.61893512	     24.74204369	    -14.19157196	   1086.39558367	     15.37057004	      9.53196912	    -20.49327004
      3.00000000	     36.81468152	      8.68985568	     17.43846793	   -194.06976659	    821.03683402	      0.91051386	     16.76618792	     38.69681534	     42.04142826	     45.00000000	    -45.00000000	  -2247.18282814	  -1367.39674351	     33.49869402	     24.32256591	    370.08579481	     19.01427859	     18.65167998	     11.06680904	      9.96139948	    -45.00000000	    -41.31493562	     45.00000000	    -31.98957633	   1537.09179133	  -3165.53494639	     24.70055010	    -14.40754145	   1086.31646712	     14.73092785	      9.64028097	    -20.48043381
      3.01000000	     36.89505076	      8.74872134	     17.47434833	   -198.58456497	    821.77166031	      1.18578262	     16.66446461	     38.58691533	     41.73956857	     45.00000000	    -45.00000000	  -2247.36716255	  -1367.41406303	     33.30487908	     27.65988927	    370.45113636	     18.74490868	     18.56582065	     10.81101576	      9.97510603	    -45.00000000	    -41.04586386	     45.00000000	    -32.85431882	   1537.31990009	  -3165.45942013	     24.69464620	    -14.52934780	   1086.24883139	     14.29448696	      9.68361655	    -20.47898851
      3.02000000	     36.90748434	      8.82673320	     17.53541956	   -202.93708096	    822.42452844	      1.45276790	     16.75440524	     38.22551625	     41.62815327	     45.00000000	    -45.00000000	  -2247.62313375	  -1367.64488806	     33.01938363	     32.02667458	    370.83294952	     18.53095786	     18.33849221	      9.92528285	     10.03156710	    -45.00000000	    -41.02510146	     45.00000000	    -33.08071179	   1537.87325757	  -3165.57300758	     24.68723632	    -14.75789400	   1086.19046256	     14.17703114	     10.05284359	    -20.58027494
      3.03000000	     36.97845381	      8.97191935	     17.57696900	   -207.09845579	    822.98678749	      1.70176568	     16.64635220	     38.22295540	     41.28351984	     45.00000000	    -45.00000000	  -2247.78987840	  -1367.62026975	     32.81567836	     34.77286595	    371.08184333	     17.85846021	     18.24976871	      9.76972473	     10.02829742	    -45.00000000	    -40.74271380	     45.00000000	    -33.98985208	   1538.02760599	  -3165.55121947	     24.61269318	    -15.07274471	   1086.16693827	     14.18018394	     10.02032957	    -20.65929223
      3.04000000	     37.02608327	      9.04207631	     17.49354293	   -211.00284788	    823.43396124	      1.88901596	     16.53192114	     38.21361713	     40.98100959	     45.00000000	    -45.00000000	  -2247.93289137	  -1367.77150025	     32.75064157	     37.13842508	    371.08068981	     17.30636275	     18.19669650	      9.80305088	     10.03705567	    -45.00000000	    -40.56746862	     45.00000000	    -34.67795103	   1538.21023165	  -3165.50896450	     24.57008231	    -15.32356356	   1086.01332594	     14.31724416	     10.01435065	    -20.72557069
